# xmcd
# 
# Track frame offsets:
#     150
#     15430
#     33183
#     49098
#     64453
#     83510
#     97778
#     115873
#     130180
#     151425
# 
# Disc length: 2203
# 
# Revision: 0
# Processed by: cddbd v1.5.2PL0 Copyright (c) Steve Scherf et al.
# Submitted via: fre:ac v1.0.31
# 
DISCID=6f08990a
DTITLE=The Nitty Gritty Dirt Band - Hold On
DYEAR=1987
DGENRE=Country
TTITLE0=Fishin' In The Dark
TTITLE1=Joe Knows How To Live
TTITLE2=Keepin' the Road Hot
TTITLE3=Blue Ridge Mountain Girl
TTITLE4=Angelyne
TTITLE5=Baby's Got A Hold On Me
TTITLE6=Dancing To The Beat Of A Broken Heart
TTITLE7=Oh What A Love
TTITLE8=Oleanna
TTITLE9=Tennessee
EXTD=
EXTT0=
EXTT1=
EXTT2=
EXTT3=
EXTT4=
EXTT5=
EXTT6=
EXTT7=
EXTT8=
EXTT9=
PLAYORDER=
